<?xml version="1.0" encoding="UTF-8" standalone="no"?>
<!-- Created with Inkscape (http://www.inkscape.org/) -->

<svg
   width="21mm"
   height="30mm"
   viewBox="0 0 21 30"
   version="1.1"
   id="svg5"
   inkscape:version="1.1.1 (3bf5ae0d25, 2021-09-20)"
   sodipodi:docname="acorn-grey.svg"
   xmlns:inkscape="http://www.inkscape.org/namespaces/inkscape"
   xmlns:sodipodi="http://sodipodi.sourceforge.net/DTD/sodipodi-0.dtd"
   xmlns="http://www.w3.org/2000/svg"
   xmlns:svg="http://www.w3.org/2000/svg">
  <sodipodi:namedview
     id="namedview7"
     pagecolor="#ffffff"
     bordercolor="#666666"
     borderopacity="1.0"
     inkscape:pageshadow="2"
     inkscape:pageopacity="0.0"
     inkscape:pagecheckerboard="0"
     inkscape:document-units="mm"
     showgrid="false"
     inkscape:zoom="0.64"
     inkscape:cx="67.96875"
     inkscape:cy="594.53125"
     inkscape:window-width="1920"
     inkscape:window-height="1057"
     inkscape:window-x="-8"
     inkscape:window-y="-8"
     inkscape:window-maximized="1"
     inkscape:current-layer="layer1" />
  <defs
     id="defs2" />
  <g
     inkscape:label="Layer 1"
     inkscape:groupmode="layer"
     id="layer1">
    <path
       id="Path_1"
       data-name="Path 1"
       d="m 2.694284,16.680249 v 5.087531 a 7.6219957,7.9031525 0 0 0 2.4270532,5.378805 c 1.8802054,1.999089 4.440219,3.286509 5.7193228,3.286509 1.279069,0 3.839084,-1.286447 5.719289,-3.285537 a 7.6219957,7.9031525 0 0 0 2.427053,-5.378805 v -5.087534 z m 17.405135,-1.57675 a 0.74909051,0.77672263 0 0 0 0.7416,-0.788371 c 0,-5.3593854 -3.980502,-8.2691811 -8.6492,-8.6633685 A 8.1163954,8.4157894 0 0 0 11.583181,2.7390497 5.2024336,5.3943386 0 0 0 10.796635,1.3428902 2.233226,2.3156043 0 0 0 9.5259895,0.46907736 1.7163536,1.7796657 0 0 0 8.4959958,0.58169593 L 6.0427185,1.6982316 A 0.69009963,0.71555572 0 0 0 5.6634782,2.0458119 0.75939048,0.78740254 0 0 0 6.0042849,3.1507005 C 6.9490945,3.7138231 8.1579142,4.4458848 8.2993331,5.7129127 4.3057369,6.5488631 0.84118749,9.7625533 0.84118749,14.316086 A 0.74909051,0.77672263 0 0 0 1.582787,15.104461 h 18.516597 z"
       fill="#1ac182"
       style="fill:#7a8398;fill-opacity:0.384314;stroke-width:0.953476" />
  </g>
</svg>
